<svg width="248" height="47" viewBox="0 0 248 47" fill="none" xmlns="http://www.w3.org/2000/svg">
<path d="M13.5312 46.2832H4.03125V0.783203H13.5312V46.2832ZM31.4688 27.7207H11.0312V20.0957H31.4688V27.7207ZM33.7188 8.43945H11.0312V0.783203H33.7188V8.43945ZM50.3563 46.2832H40.9188V0.783203H50.3563V46.2832ZM80.65 46.2832H71.2125V0.783203H80.65V46.2832ZM94.5563 8.43945H57.4938V0.783203H94.5563V8.43945Z" fill="white"/>
<path d="M201.531 0.783203V30.7832C201.531 34.304 200.771 37.2624 199.25 39.6582C197.75 42.054 195.688 43.8665 193.062 45.0957C190.438 46.304 187.448 46.9082 184.094 46.9082C180.698 46.9082 177.677 46.304 175.031 45.0957C172.406 43.8665 170.344 42.054 168.844 39.6582C167.344 37.2624 166.594 34.304 166.594 30.7832V0.783203H176.062V30.7832C176.062 32.7624 176.385 34.3874 177.031 35.6582C177.677 36.9082 178.594 37.8249 179.781 38.4082C180.99 38.9915 182.427 39.2832 184.094 39.2832C185.781 39.2832 187.219 38.9915 188.406 38.4082C189.594 37.8249 190.5 36.9082 191.125 35.6582C191.75 34.3874 192.062 32.7624 192.062 30.7832V0.783203H201.531ZM216.638 26.4395V19.7832H226.356C228.856 19.7832 230.71 19.304 231.919 18.3457C233.148 17.3874 233.763 16.002 233.763 14.1895C233.763 12.1478 233.169 10.679 231.981 9.7832C230.794 8.88737 228.919 8.43945 226.356 8.43945H219.856V46.2832H210.356V0.783203H226.356C231.648 0.783203 235.783 1.80404 238.763 3.8457C241.742 5.86654 243.231 9.00195 243.231 13.252C243.231 15.1061 242.794 16.8353 241.919 18.4395C241.065 20.0436 239.731 21.3457 237.919 22.3457C236.106 23.3249 233.752 23.8665 230.856 23.9707L228.169 26.4395H216.638ZM213.981 46.2832L217.763 38.6582H227.794C230.21 38.6582 231.981 38.1061 233.106 37.002C234.231 35.877 234.794 34.4707 234.794 32.7832C234.794 31.4707 234.565 30.3457 234.106 29.4082C233.669 28.4499 232.96 27.7207 231.981 27.2207C231.023 26.6999 229.752 26.4395 228.169 26.4395H219.106V19.7832H230.513L232.669 22.4395C235.44 22.377 237.669 22.8457 239.356 23.8457C241.044 24.8457 242.273 26.1478 243.044 27.752C243.835 29.3561 244.231 31.0645 244.231 32.877C244.231 37.2936 242.804 40.6374 239.95 42.9082C237.117 45.1582 233.065 46.2832 227.794 46.2832H213.981Z" fill="white"/>
<rect x="115" y="19.2832" width="31" height="8" fill="white"/>
<rect x="107.028" y="46.4274" width="46.4273" height="9.61756" transform="rotate(-90 107.028 46.4274)" fill="white"/>
<rect x="149" y="36.2832" width="24" height="10" transform="rotate(-90 149 36.2832)" fill="white"/>
<rect x="100" y="36.2832" width="24" height="10" transform="rotate(-90 100 36.2832)" fill="white"/>
<rect x="142.354" y="46.4274" width="46.4273" height="9.61756" transform="rotate(-90 142.354 46.4274)" fill="white"/>
</svg>
