<svg width="800" height="800" viewBox="0 0 800 800" fill="none" xmlns="http://www.w3.org/2000/svg">
<path fill-rule="evenodd" clip-rule="evenodd" d="M733.233 400C733.233 584.093 583.993 733.333 399.9 733.333C215.805 733.333 66.5664 584.093 66.5664 400C66.5664 215.905 215.805 66.6665 399.9 66.6665C583.993 66.6665 733.233 215.905 733.233 400ZM411.843 312.748C379.423 326.233 314.625 354.143 217.452 396.48C201.673 402.756 193.407 408.897 192.654 414.897C191.382 425.043 204.086 429.036 221.385 434.476C223.738 435.216 226.176 435.983 228.675 436.793C245.695 442.326 268.589 448.8 280.491 449.056C291.287 449.29 303.336 444.84 316.639 435.703C407.43 374.416 454.3 343.44 457.24 342.77C459.317 342.3 462.193 341.706 464.143 343.44C466.093 345.173 465.9 348.453 465.693 349.333C464.437 354.7 414.57 401.06 388.763 425.05C380.72 432.53 375.013 437.833 373.847 439.046C371.233 441.76 368.57 444.326 366.01 446.793C350.2 462.036 338.34 473.466 366.667 492.133C380.277 501.103 391.17 508.52 402.037 515.92C413.903 524.003 425.74 532.063 441.057 542.103C444.957 544.66 448.683 547.317 452.313 549.903C466.123 559.75 478.53 568.596 493.86 567.183C502.767 566.366 511.967 557.99 516.64 533.01C527.683 473.976 549.39 346.066 554.407 293.36C554.847 288.742 554.293 282.833 553.847 280.238C553.403 277.644 552.477 273.947 549.103 271.211C545.11 267.97 538.943 267.287 536.187 267.333C523.65 267.557 504.413 274.245 411.843 312.748Z" stroke="#A4ABB6" stroke-width="33.3333" stroke-linejoin="round"/>
</svg>
