<svg width="667" height="667" viewBox="0 0 667 667" fill="none" xmlns="http://www.w3.org/2000/svg">
<path fill-rule="evenodd" clip-rule="evenodd" d="M666.667 333.333C666.667 517.427 517.427 666.667 333.333 666.667C149.238 666.667 0 517.427 0 333.333C0 149.238 149.238 0 333.333 0C517.427 0 666.667 149.238 666.667 333.333ZM345.277 246.081C312.857 259.567 248.059 287.477 150.886 329.813C135.106 336.09 126.84 342.23 126.088 348.23C124.816 358.377 137.52 362.37 154.818 367.81C157.172 368.55 159.61 369.317 162.109 370.127C179.128 375.66 202.023 382.133 213.924 382.39C224.72 382.623 236.77 378.173 250.073 369.037C340.867 307.75 387.733 276.773 390.673 276.103C392.75 275.633 395.627 275.04 397.577 276.773C399.527 278.507 399.333 281.787 399.127 282.667C397.87 288.033 348.003 334.393 322.197 358.383C314.153 365.863 308.447 371.167 307.28 372.38C304.667 375.093 302.003 377.66 299.443 380.127C283.633 395.37 271.773 406.8 300.1 425.467C313.713 434.437 324.603 441.853 335.47 449.253C347.337 457.337 359.173 465.397 374.49 475.437C378.39 477.993 382.117 480.65 385.747 483.237C399.557 493.083 411.963 501.93 427.293 500.517C436.2 499.7 445.4 491.323 450.073 466.343C461.117 407.31 482.823 279.4 487.84 226.694C488.28 222.076 487.727 216.166 487.283 213.572C486.837 210.977 485.91 207.281 482.537 204.544C478.543 201.304 472.38 200.62 469.62 200.667C457.083 200.89 437.847 207.578 345.277 246.081Z" fill="#A4ABB6"/>
</svg>
